<?xml version="1.0" standalone="no"?>
<!DOCTYPE svg PUBLIC "-//W3C//DTD SVG 20010904//EN"
 "http://www.w3.org/TR/2001/REC-SVG-20010904/DTD/svg10.dtd">
<svg version="1.0" xmlns="http://www.w3.org/2000/svg"
 width="286.000000pt" height="291.000000pt" viewBox="0 0 286.000000 291.000000"
 preserveAspectRatio="xMidYMid meet">

<g transform="translate(0.000000,291.000000) scale(0.100000,-0.100000)"
fill="#000000" stroke="none">
<path d="M2074 2252 c-71 -44 -237 -144 -369 -224 -131 -80 -241 -150 -243
-156 -1 -5 19 -22 45 -37 26 -15 89 -53 138 -83 213 -131 235 -151 235 -205 0
-38 -36 -96 -67 -108 -13 -5 -176 -9 -361 -9 -386 0 -383 0 -423 -85 -20 -42
-20 -50 -9 -85 7 -22 20 -46 29 -54 24 -22 333 -210 386 -236 26 -12 95 -52
153 -88 59 -35 139 -84 177 -107 39 -23 153 -93 255 -154 185 -113 185 -113
239 -109 47 4 59 10 88 41 l33 37 0 831 0 832 -40 39 c-36 33 -47 38 -89 38
-42 0 -63 -9 -177 -78z"/>
</g>
</svg>
